<svg width="1285" height="1285" viewBox="0 0 1285 1285" fill="none" xmlns="http://www.w3.org/2000/svg">
<mask id="path-1-inside-1_6_10" fill="white">
<path d="M1285 642.5C1285 472.098 1217.31 308.676 1096.82 188.184C976.324 67.6918 812.902 1.2865e-05 642.5 0C472.098 -1.2865e-05 308.676 67.6917 188.184 188.184C67.6918 308.676 2.57299e-05 472.098 0 642.5L642.5 642.5H1285Z"/>
</mask>
<path d="M1285 642.5C1285 472.098 1217.31 308.676 1096.82 188.184C976.324 67.6918 812.902 1.2865e-05 642.5 0C472.098 -1.2865e-05 308.676 67.6917 188.184 188.184C67.6918 308.676 2.57299e-05 472.098 0 642.5L642.5 642.5H1285Z" stroke="#7B22B7" stroke-width="443.103" mask="url(#path-1-inside-1_6_10)"/>
<mask id="path-2-inside-2_6_10" fill="white">
<path d="M1097 643C1097 583.38 1085.26 524.344 1062.44 469.262C1039.63 414.18 1006.18 364.131 964.026 321.974C921.869 279.816 871.82 246.374 816.738 223.559C761.656 200.743 702.62 189 643 189C583.38 189 524.344 200.743 469.262 223.559C414.18 246.374 364.131 279.816 321.974 321.974C279.816 364.131 246.374 414.18 223.559 469.262C200.743 524.344 189 583.38 189 643L643 643H1097Z"/>
</mask>
<path d="M1097 643C1097 583.38 1085.26 524.344 1062.44 469.262C1039.63 414.18 1006.18 364.131 964.026 321.974C921.869 279.816 871.82 246.374 816.738 223.559C761.656 200.743 702.62 189 643 189C583.38 189 524.344 200.743 469.262 223.559C414.18 246.374 364.131 279.816 321.974 321.974C279.816 364.131 246.374 414.18 223.559 469.262C200.743 524.344 189 583.38 189 643L643 643H1097Z" fill="#E54CD0" stroke="#E54CD0" stroke-width="400" mask="url(#path-2-inside-2_6_10)"/>
</svg>
